<svg xmlns="http://www.w3.org/2000/svg" xmlns:xlink="http://www.w3.org/1999/xlink" width="1500" zoomAndPan="magnify" viewBox="0 0 1125 1124.99995" height="1500" preserveAspectRatio="xMidYMid meet" version="1.0"><defs><g/><clipPath id="4955f3d7a6"><path d="M 706.761719 771.199219 L 885.195312 771.199219 L 885.195312 949.632812 L 706.761719 949.632812 Z M 706.761719 771.199219 " clip-rule="nonzero"/></clipPath><clipPath id="d1b1a62937"><path d="M 795.980469 771.199219 C 746.707031 771.199219 706.761719 811.140625 706.761719 860.414062 C 706.761719 909.6875 746.707031 949.632812 795.980469 949.632812 C 845.253906 949.632812 885.195312 909.6875 885.195312 860.414062 C 885.195312 811.140625 845.253906 771.199219 795.980469 771.199219 " clip-rule="nonzero"/></clipPath></defs><g fill="#845bb3" fill-opacity="1"><g transform="translate(26.040213, 1104.824971)"><g><path d="M 274.953125 -98.421875 C 272.867188 -81.753906 274.6875 -67.429688 280.40625 -55.453125 C 286.132812 -43.484375 294.207031 -33.332031 304.625 -25 C 315.039062 -16.664062 327.019531 -10.414062 340.5625 -6.25 C 354.101562 -2.082031 367.117188 0 379.609375 0 C 332.742188 0 288.484375 -8.066406 246.828125 -24.203125 C 205.171875 -40.347656 168.976562 -62.21875 138.25 -89.8125 C 107.53125 -117.414062 83.316406 -149.703125 65.609375 -186.671875 C 47.910156 -223.648438 39.0625 -262.96875 39.0625 -304.625 C 39.0625 -327.539062 43.484375 -349.148438 52.328125 -369.453125 C 61.179688 -389.765625 73.160156 -407.472656 88.265625 -422.578125 C 103.367188 -437.679688 121.070312 -449.65625 141.375 -458.5 C 161.6875 -467.351562 183.296875 -471.78125 206.203125 -471.78125 C 229.117188 -471.78125 250.726562 -467.351562 271.03125 -458.5 C 291.34375 -449.65625 309.050781 -437.679688 324.15625 -422.578125 C 339.257812 -407.472656 351.234375 -389.765625 360.078125 -369.453125 C 368.929688 -349.148438 373.359375 -327.539062 373.359375 -304.625 C 373.359375 -260.882812 358.257812 -222.351562 328.0625 -189.03125 C 316.601562 -176.53125 305.40625 -161.945312 294.46875 -145.28125 C 283.539062 -128.625 277.035156 -113.003906 274.953125 -98.421875 Z M 382.734375 0 L 379.609375 0 Z M 820.15625 -1093.546875 C 794.125 -1093.546875 771.992188 -1082.867188 753.765625 -1061.515625 C 735.535156 -1040.160156 726.421875 -1016.46875 726.421875 -990.4375 L 726.421875 -304.625 C 726.421875 -268.175781 719.648438 -233.546875 706.109375 -200.734375 C 692.578125 -167.929688 673.570312 -138.507812 649.09375 -112.46875 C 624.625 -86.4375 595.984375 -64.046875 563.171875 -45.296875 C 530.367188 -26.554688 494.695312 -13.539062 456.15625 -6.25 C 469.695312 -9.375 483.5 -13.539062 497.5625 -18.75 C 511.625 -23.957031 524.117188 -30.722656 535.046875 -39.046875 C 545.984375 -47.378906 554.835938 -56.753906 561.609375 -67.171875 C 568.378906 -77.585938 571.765625 -89.046875 571.765625 -101.546875 C 571.765625 -122.367188 565.515625 -141.113281 553.015625 -157.78125 C 540.523438 -174.445312 526.46875 -190.328125 510.84375 -205.421875 C 495.21875 -220.523438 481.15625 -236.148438 468.65625 -252.296875 C 456.164062 -268.441406 449.921875 -285.882812 449.921875 -304.625 L 449.921875 -990.4375 C 449.921875 -1016.46875 440.804688 -1040.160156 422.578125 -1061.515625 C 404.347656 -1082.867188 382.21875 -1093.546875 356.1875 -1093.546875 Z M 820.15625 -1093.546875 "/></g></g></g><g clip-path="url(#4955f3d7a6)"><g clip-path="url(#d1b1a62937)"><path fill="#e0c3fc" d="M 706.761719 771.199219 L 885.195312 771.199219 L 885.195312 949.632812 L 706.761719 949.632812 Z M 706.761719 771.199219 " fill-opacity="1" fill-rule="nonzero"/></g></g></svg>